<svg id="visual" viewBox="0 0 900 100" width="100%" height="100%" xmlns="http://www.w3.org/2000/svg" xmlns:xlink="http://www.w3.org/1999/xlink" version="1.1">
    <rect x="0" y="0" width="900" height="100" fill="#03001c"></rect>
    <path d="M0 31L12.5 39.5C25 48 50 65 75 65.8C100 66.7 125 51.3 150 53.7C175 56 200 76 225 77.3C250 78.7 275 61.3 300 48C325 34.7 350 25.3 375 18.8C400 12.3 425 8.7 450 9.5C475 10.3 500 15.7 525 18.5C550 21.3 575 21.7 600 21.8C625 22 650 22 675 28.7C700 35.3 725 48.7 750 48.3C775 48 800 34 825 38.8C850 43.7 875 67.3 887.5 79.2L900 91" fill="none" stroke-linecap="round" stroke-linejoin="miter" stroke="#83ff00" stroke-width="20"></path>
</svg>