<svg id="visual" viewBox="0 0 900 100" width="100%" height="100%" xmlns="http://www.w3.org/2000/svg" xmlns:xlink="http://www.w3.org/1999/xlink" version="1.1">
    <rect x="0" y="0" width="900" height="100" fill="#03001c"></rect>
    <path d="M0 80L12.5 70.8C25 61.7 50 43.3 75 45C100 46.7 125 68.3 150 69.3C175 70.3 200 50.7 225 44.2C250 37.7 275 44.3 300 55.3C325 66.3 350 81.7 375 79.8C400 78 425 59 450 51.5C475 44 500 48 525 41.7C550 35.3 575 18.7 600 15C625 11.3 650 20.7 675 25C700 29.3 725 28.7 750 32.8C775 37 800 46 825 57C850 68 875 81 887.5 87.5L900 94" fill="none" stroke-linecap="round" stroke-linejoin="miter" stroke="#83ff00" stroke-width="20"></path>
</svg>