<svg id="visual" viewBox="0 0 900 100" width="100%" height="100%" xmlns="http://www.w3.org/2000/svg" xmlns:xlink="http://www.w3.org/1999/xlink" version="1.1">
    <rect x="0" y="0" width="900" height="100" fill="#03001c"></rect>
    <path d="M0 2L12.5 5.2C25 8.3 50 14.7 75 30.3C100 46 125 71 150 67.7C175 64.3 200 32.7 225 28.3C250 24 275 47 300 52.7C325 58.3 350 46.7 375 41C400 35.3 425 35.7 450 30.3C475 25 500 14 525 16.8C550 19.7 575 36.3 600 52C625 67.7 650 82.3 675 85.3C700 88.3 725 79.7 750 73.8C775 68 800 65 825 58.7C850 52.3 875 42.7 887.5 37.8L900 33" fill="none" stroke-linecap="round" stroke-linejoin="miter" stroke="#83ff00" stroke-width="20"></path>
</svg>