<svg id="visual" viewBox="0 0 900 100" width="100%" height="100%" xmlns="http://www.w3.org/2000/svg" xmlns:xlink="http://www.w3.org/1999/xlink" version="1.1">
    <rect x="0" y="0" width="900" height="100" fill="#03001c"></rect>
    <path d="M0 68L12.5 66C25 64 50 60 75 65C100 70 125 84 150 87.3C175 90.7 200 83.3 225 76C250 68.7 275 61.3 300 61.3C325 61.3 350 68.7 375 71.5C400 74.3 425 72.7 450 70.8C475 69 500 67 525 63.5C550 60 575 55 600 46.7C625 38.3 650 26.7 675 30.7C700 34.7 725 54.3 750 66C775 77.7 800 81.3 825 83.5C850 85.7 875 86.3 887.5 86.7L900 87" fill="none" stroke-linecap="round" stroke-linejoin="miter" stroke="#83ff00" stroke-width="20"></path>
</svg>